<?xml version="1.0" encoding="UTF-8" standalone="no"?>
<svg xmlns:ffdec="https://www.free-decompiler.com/flash" xmlns:xlink="http://www.w3.org/1999/xlink" ffdec:objectType="frame" height="121.0px" width="111.0px" xmlns="http://www.w3.org/2000/svg">
  <g transform="matrix(1.0, 0.0, 0.0, 1.0, 0.5, 0.5)">
    <use ffdec:characterId="1272" height="120.0" transform="matrix(1.0, 0.0, 0.0, 1.0, 0.0, 0.0)" width="110.0" xlink:href="#shape0"/>
  </g>
  <defs>
    <g id="shape0" transform="matrix(1.0, 0.0, 0.0, 1.0, 0.0, 0.0)">
      <path d="M50.0 100.0 L50.0 110.0 40.0 110.0 40.0 120.0 20.0 120.0 20.0 90.0 30.0 90.0 30.0 80.0 40.0 80.0 40.0 70.0 20.0 70.0 20.0 80.0 0.0 80.0 0.0 70.0 10.0 70.0 10.0 60.0 30.0 60.0 30.0 50.0 20.0 50.0 20.0 10.0 30.0 10.0 30.0 0.0 80.0 0.0 80.0 10.0 90.0 10.0 90.0 50.0 80.0 50.0 80.0 60.0 100.0 60.0 100.0 70.0 110.0 70.0 110.0 80.0 90.0 80.0 90.0 70.0 70.0 70.0 70.0 80.0 80.0 80.0 80.0 90.0 90.0 90.0 90.0 120.0 70.0 120.0 70.0 110.0 60.0 110.0 60.0 100.0 60.0 90.0 50.0 90.0 50.0 100.0 M70.0 40.0 L80.0 40.0 80.0 30.0 70.0 30.0 70.0 40.0 M40.0 30.0 L30.0 30.0 30.0 40.0 40.0 40.0 40.0 30.0 M40.0 70.0 L50.0 70.0 50.0 80.0 60.0 80.0 60.0 70.0 70.0 70.0 70.0 60.0 40.0 60.0 40.0 70.0" fill="#e7dc2f" fill-rule="evenodd" stroke="none"/>
      <path d="M60.0 100.0 L50.0 100.0 50.0 90.0 60.0 90.0 60.0 100.0 M40.0 70.0 L40.0 60.0 70.0 60.0 70.0 70.0 60.0 70.0 60.0 80.0 50.0 80.0 50.0 70.0 40.0 70.0" fill="#fec62d" fill-rule="evenodd" stroke="none"/>
      <path d="M40.0 30.0 L40.0 40.0 30.0 40.0 30.0 30.0 40.0 30.0 M70.0 40.0 L70.0 30.0 80.0 30.0 80.0 40.0 70.0 40.0" fill="#000000" fill-rule="evenodd" stroke="none"/>
    </g>
  </defs>
</svg>
