<?xml version="1.0" encoding="UTF-8" standalone="no"?>
<svg
   ffdec:objectType="shape"
   height="352"
   width="352"
   version="1.1"
   id="svg4"
   sodipodi:docname="8177edit.svg"
   inkscape:version="1.4 (e7c3feb100, 2024-10-09)"
   xmlns:inkscape="http://www.inkscape.org/namespaces/inkscape"
   xmlns:sodipodi="http://sodipodi.sourceforge.net/DTD/sodipodi-0.dtd"
   xmlns="http://www.w3.org/2000/svg"
   xmlns:svg="http://www.w3.org/2000/svg"
   xmlns:ffdec="https://www.free-decompiler.com/flash">
  <defs
     id="defs4" />
  <sodipodi:namedview
     id="namedview4"
     pagecolor="#505050"
     bordercolor="#ffffff"
     borderopacity="1"
     inkscape:showpageshadow="0"
     inkscape:pageopacity="0"
     inkscape:pagecheckerboard="1"
     inkscape:deskcolor="#505050"
     inkscape:zoom="1"
     inkscape:cx="175.5"
     inkscape:cy="175.5"
     inkscape:window-width="2560"
     inkscape:window-height="1367"
     inkscape:window-x="0"
     inkscape:window-y="0"
     inkscape:window-maximized="1"
     inkscape:current-layer="svg4" />
  <g
     transform="matrix(16,0,0,16,16,16)"
     id="g4">
    <path
       d="m 0,5 5,5 H 15 L 20,5 V 20 H 0 V 5"
       fill="#0a0a3c"
       fill-rule="evenodd"
       stroke="none"
       id="path1"
       sodipodi:insensitive="true" />
    <path
       d="M 0,5 5,0 h 10 l 5,5 -5,5 H 5 L 0,5"
       fill="#141446"
       fill-rule="evenodd"
       stroke="none"
       id="path2"
       sodipodi:insensitive="true"
       style="display:inline" />
    <path
       d="M 20,5 15,0 H 5 L 0,5 v 15 h 20 z"
       fill="none"
       stroke="#000000"
       stroke-linecap="round"
       stroke-linejoin="round"
       stroke-width="2"
       id="path3"
       sodipodi:insensitive="true"
       style="display:inline" />
    <path
       d="m 11.5,2.5 v 1.7 q 0.85,0.15 1.6,0.6 l 1.15,-1.15 2.1,2.1 -1.15,1.2 0.65,1.55 h 1.65 v 3 h -1.65 l -0.65,1.55 1.2,1.2 -2.15,2.1 -1.2,-1.15 -1.55,0.65 v 1.65 h -3 V 15.85 L 6.95,15.2 5.75,16.35 3.65,14.25 4.85,13.05 4.2,11.5 H 2.5 v -3 H 4.2 Q 4.4,7.65 4.85,6.95 l -1.2,-1.2 2.1,-2.1 1.2,1.15 Q 7.7,4.35 8.5,4.2 V 2.5 h 3 m 1.15,4.85 q -1.1,-1.1 -2.65,-1.1 -1.55,0 -2.65,1.1 -1.1,1.1 -1.1,2.65 0,1.55 1.1,2.65 1.1,1.1 2.65,1.1 1.55,0 2.65,-1.1 1.1,-1.1 1.1,-2.65 0,-1.55 -1.1,-2.65"
       fill="#cccccc"
       fill-rule="evenodd"
       stroke="none"
       id="path4"
       sodipodi:insensitive="true"
       style="display:inline" />
  </g>
</svg>
