<?xml version="1.0" encoding="UTF-8" standalone="no"?>
<svg xmlns:ffdec="https://www.free-decompiler.com/flash" xmlns:xlink="http://www.w3.org/1999/xlink" ffdec:objectType="frame" height="74.0px" width="142.05px" xmlns="http://www.w3.org/2000/svg">
  <g transform="matrix(1.0, 0.0, 0.0, 1.0, -1.95, -16.1)">
    <filter id="filter16">
      <feFlood flood-color="#ffffff" flood-opacity="1.0" result="filterResult0"/>
      <feOffset dx="2.12134798749606" dy="2.1212926992629795" in="SourceGraphic" result="filterResult1"/>
      <feComposite in="filterResult0" in2="filterResult1" operator="out" result="filterResult2"/>
      <feComposite in="filterResult2" in2="SourceGraphic" operator="in" result="filterResult3"/>
      <feFlood flood-color="#000000" flood-opacity="1.0" result="filterResult4"/>
      <feOffset dx="-2.12134798749606" dy="-2.121292699262979" in="SourceGraphic" result="filterResult5"/>
      <feComposite in="filterResult4" in2="filterResult5" operator="out" result="filterResult6"/>
      <feComposite in="filterResult6" in2="SourceGraphic" operator="in" result="filterResult7"/>
      <feComposite in="filterResult3" in2="filterResult7" operator="out" result="filterResult8"/>
      <feComposite in="filterResult7" in2="filterResult3" operator="out" result="filterResult9"/>
      <feComposite in="filterResult9" in2="filterResult8" operator="over" result="filterResult10"/>
      <feConvolveMatrix divisor="25.0" in="filterResult10" kernelMatrix="1 1 1 1 1 1 1 1 1 1 1 1 1 1 1 1 1 1 1 1 1 1 1 1 1" order="5 5" result="filterResult11"/>
      <feComposite in="filterResult11" in2="SourceGraphic" operator="in" result="filterResult12"/>
      <feComposite in="filterResult12" in2="SourceGraphic" operator="over" result="filterResult13"/>
      <feColorMatrix in="filterResult13" result="filterResult14" type="matrix" values="0 0 0 0 0.0,0 0 0 0 0.0,0 0 0 0 0.0,0 0 0 1 0"/>
      <feConvolveMatrix divisor="25.0" in="filterResult14" kernelMatrix="1 1 1 1 1 1 1 1 1 1 1 1 1 1 1 1 1 1 1 1 1 1 1 1 1" order="5 5" result="filterResult15"/>
      <feComposite in="filterResult13" in2="filterResult15" operator="over" result="filterResult16"/>
    </filter>
    <use ffdec:characterId="2342" filter="url(#filter16)" height="74.0" transform="matrix(1.0, 0.0, 0.0, 1.0, 1.95, 16.1)" width="142.05" xlink:href="#text0"/>
  </g>
  <defs>
    <g id="text0" transform="matrix(1.0, 0.0, 0.0, 1.0, -0.5, -14.1)">
      <g transform="matrix(1.0, 0.0, 0.0, 1.0, 0.55, 0.0)">
        <use fill="#ff0000" height="74.0" transform="matrix(0.041, 0.0, 0.0, 0.041, 0.0, 45.0)" width="142.05" xlink:href="#font_McLaren_A0"/>
      </g>
      <g transform="matrix(1.0, 0.0, 0.0, 1.0, 0.55, 0.0)">
        <use fill="#ff0000" height="74.0" transform="matrix(0.0293, 0.0, 0.0, 0.0293, 32.3, 45.0)" width="142.05" xlink:href="#font_McLaren_n0"/>
        <use fill="#ff0000" height="74.0" transform="matrix(0.0293, 0.0, 0.0, 0.0293, 50.85, 45.0)" width="142.05" xlink:href="#font_McLaren_t0"/>
        <use fill="#ff0000" height="74.0" transform="matrix(0.0293, 0.0, 0.0, 0.0293, 65.05, 45.0)" width="142.05" xlink:href="#font_McLaren_i0"/>
      </g>
      <g transform="matrix(1.0, 0.0, 0.0, 1.0, 0.55, 0.0)">
        <use fill="#ffff00" height="74.0" transform="matrix(0.0293, 0.0, 0.0, 0.0293, 72.55, 45.0)" width="142.05" xlink:href="#font_McLaren_-0"/>
      </g>
      <g transform="matrix(1.0, 0.0, 0.0, 1.0, 0.55, 0.0)">
        <use fill="#0066ff" height="74.0" transform="matrix(0.0293, 0.0, 0.0, 0.0293, 88.05, 45.0)" width="142.05" xlink:href="#font_McLaren_I0"/>
        <use fill="#0066ff" height="74.0" transform="matrix(0.0293, 0.0, 0.0, 0.0293, 96.7, 45.0)" width="142.05" xlink:href="#font_McLaren_d0"/>
        <use fill="#0066ff" height="74.0" transform="matrix(0.0293, 0.0, 0.0, 0.0293, 116.55, 45.0)" width="142.05" xlink:href="#font_McLaren_l0"/>
        <use fill="#0066ff" height="74.0" transform="matrix(0.0293, 0.0, 0.0, 0.0293, 124.95, 45.0)" width="142.05" xlink:href="#font_McLaren_e0"/>
      </g>
      <g transform="matrix(1.0, 0.0, 0.0, 1.0, 0.55, 0.0)">
        <use fill="#009900" height="74.0" transform="matrix(0.0215, 0.0, 0.0, 0.0215, 18.0, 86.0)" width="142.05" xlink:href="#font_McLaren_T0"/>
      </g>
      <g transform="matrix(1.0, 0.0, 0.0, 1.0, 0.55, 0.0)">
        <use fill="#00cc00" height="74.0" transform="matrix(0.0215, 0.0, 0.0, 0.0215, 31.25, 86.0)" width="142.05" xlink:href="#font_McLaren_h0"/>
      </g>
      <g transform="matrix(1.0, 0.0, 0.0, 1.0, 0.55, 0.0)">
        <use fill="#009900" height="74.0" transform="matrix(0.0215, 0.0, 0.0, 0.0215, 45.7, 86.0)" width="142.05" xlink:href="#font_McLaren_e0"/>
      </g>
      <g transform="matrix(1.0, 0.0, 0.0, 1.0, 0.55, 0.0)">
        <use fill="#00cc00" height="74.0" transform="matrix(0.0215, 0.0, 0.0, 0.0215, 64.5, 86.0)" width="142.05" xlink:href="#font_McLaren_G0"/>
      </g>
      <g transform="matrix(1.0, 0.0, 0.0, 1.0, 0.55, 0.0)">
        <use fill="#009900" height="74.0" transform="matrix(0.0215, 0.0, 0.0, 0.0215, 81.15, 86.0)" width="142.05" xlink:href="#font_McLaren_a0"/>
      </g>
      <g transform="matrix(1.0, 0.0, 0.0, 1.0, 0.55, 0.0)">
        <use fill="#00cc00" height="74.0" transform="matrix(0.0215, 0.0, 0.0, 0.0215, 94.9, 86.0)" width="142.05" xlink:href="#font_McLaren_m0"/>
      </g>
      <g transform="matrix(1.0, 0.0, 0.0, 1.0, 0.55, 0.0)">
        <use fill="#009900" height="74.0" transform="matrix(0.0215, 0.0, 0.0, 0.0215, 112.7, 86.0)" width="142.05" xlink:href="#font_McLaren_e0"/>
      </g>
    </g>
    <g id="font_McLaren_A0">
      <path d="M396.5 -632.0 L396.5 -632.0 Q441.0 -539.0 480.0 -446.5 519.0 -354.0 553.0 -258.0 L215.0 -243.5 Q256.0 -342.5 301.0 -439.0 346.0 -536.0 396.5 -632.0 M645.0 28.5 L763.0 11.5 Q705.0 -178.5 634.0 -358.5 563.0 -539.0 477.0 -712.5 L337.0 -715.0 Q240.0 -535.5 154.5 -352.5 68.5 -169.5 -2.0 19.5 L111.5 35.0 Q127.5 -13.5 144.5 -61.0 161.5 -108.5 180.0 -156.5 L582.5 -174.0 Q599.5 -123.0 615.0 -72.5 630.5 -22.5 645.0 28.5" fill-rule="evenodd" stroke="none"/>
    </g>
    <g id="font_McLaren_n0">
      <path d="M87.0 37.0 L194.5 23.5 Q194.0 13.5 193.0 -15.5 192.0 -40.0 191.0 -87.5 189.5 -135.5 187.5 -216.0 234.5 -315.5 275.5 -367.0 316.0 -419.0 355.5 -425.0 378.5 -428.5 396.0 -422.5 413.0 -416.5 425.0 -404.5 437.0 -393.0 444.5 -377.0 452.0 -361.5 456.5 -345.5 460.5 -329.5 462.0 -315.0 463.0 -301.0 463.0 -292.0 467.0 -210.0 464.0 -129.5 460.5 -49.0 456.5 31.5 L559.0 35.0 Q561.0 -58.5 562.5 -145.5 564.0 -232.5 561.0 -318.5 560.0 -337.5 557.0 -360.5 553.5 -383.5 546.0 -406.5 538.5 -430.0 525.5 -451.5 512.5 -473.5 492.5 -489.5 472.5 -505.5 444.5 -514.5 416.0 -523.5 378.0 -521.0 347.5 -519.0 320.0 -507.0 292.0 -495.0 267.5 -475.5 243.0 -456.0 222.0 -430.5 201.0 -405.5 184.5 -377.0 L182.5 -521.0 68.5 -519.0 Q69.5 -484.5 71.5 -413.0 72.5 -382.5 74.0 -340.5 75.0 -298.5 77.0 -243.5 79.0 -188.5 81.5 -118.5 84.0 -49.0 87.0 37.0" fill-rule="evenodd" stroke="none"/>
    </g>
    <g id="font_McLaren_t0">
      <path d="M290.0 -720.0 L190.5 -713.5 186.5 -494.5 13.5 -489.5 11.5 -397.5 184.5 -401.5 176.0 34.0 281.5 31.5 285.5 -404.5 473.0 -409.5 480.5 -503.0 286.5 -496.5 290.0 -720.0" fill-rule="evenodd" stroke="none"/>
    </g>
    <g id="font_McLaren_i0">
      <path d="M184.5 -490.5 L81.0 -486.5 Q79.5 -364.0 78.0 -271.5 76.0 -179.0 75.0 -115.0 73.5 -40.5 72.5 13.5 L175.0 13.5 Q175.0 -26.0 176.5 -95.0 177.0 -124.0 178.0 -162.5 178.5 -201.5 179.5 -250.5 180.5 -299.5 182.0 -359.0 183.0 -419.0 184.5 -490.5 M208.0 -666.5 L208.0 -666.5 Q208.0 -681.5 202.5 -694.5 196.5 -707.5 187.0 -717.0 177.0 -727.0 164.0 -732.5 151.0 -738.5 136.0 -738.5 121.5 -738.5 109.0 -732.5 96.0 -727.0 86.5 -717.0 76.5 -707.5 71.0 -694.5 65.5 -681.5 65.5 -666.5 65.5 -652.0 71.0 -639.0 76.5 -626.0 86.5 -616.5 96.0 -607.0 109.0 -601.5 121.5 -596.0 136.0 -596.0 151.0 -596.0 164.0 -601.5 177.0 -607.0 187.0 -616.5 196.5 -626.0 202.5 -639.0 208.0 -652.0 208.0 -666.5" fill-rule="evenodd" stroke="none"/>
    </g>
    <g id="font_McLaren_-0">
      <path d="M464.0 -300.0 L464.0 -404.5 65.5 -393.0 68.5 -289.0 464.0 -300.0" fill-rule="evenodd" stroke="none"/>
    </g>
    <g id="font_McLaren_I0">
      <path d="M204.0 -17.5 L197.5 -708.5 86.0 -712.5 103.5 -17.5 204.0 -17.5" fill-rule="evenodd" stroke="none"/>
    </g>
    <g id="font_McLaren_d0">
      <path d="M313.5 -61.5 L313.5 -61.5 Q276.0 -61.5 244.5 -75.5 212.5 -90.0 190.0 -115.5 167.0 -141.0 154.5 -176.0 141.5 -211.0 141.5 -253.0 141.5 -295.0 154.0 -331.0 166.5 -367.0 189.0 -393.5 211.5 -420.0 242.5 -435.0 273.5 -450.5 310.5 -450.5 342.0 -450.5 372.5 -440.0 402.5 -429.5 428.0 -410.5 453.5 -391.5 472.5 -364.5 491.5 -338.0 500.5 -306.0 L499.5 -199.5 Q490.0 -169.0 471.5 -143.5 453.0 -118.0 428.5 -99.5 403.5 -81.5 374.0 -71.5 344.5 -61.5 313.5 -61.5 M601.0 -717.0 L507.0 -724.0 503.0 -468.0 Q473.5 -498.5 439.5 -514.5 405.5 -531.0 376.0 -538.0 341.5 -546.5 308.0 -547.0 259.0 -547.0 211.0 -527.5 162.5 -508.5 124.5 -472.0 86.0 -435.5 62.5 -382.0 39.0 -329.0 39.0 -261.0 39.0 -193.5 60.5 -139.5 81.5 -85.5 118.5 -47.5 155.5 -10.0 205.5 10.5 255.5 30.5 313.5 30.5 344.5 29.5 376.0 21.5 389.5 18.0 404.5 13.0 419.5 7.5 435.5 0.0 451.0 -8.0 467.0 -18.5 482.5 -29.0 497.5 -43.0 L496.5 20.5 599.0 20.5 601.0 -717.0" fill-rule="evenodd" stroke="none"/>
    </g>
    <g id="font_McLaren_l0">
      <path d="M270.5 24.5 L283.5 -75.0 Q262.0 -75.5 246.0 -82.5 229.5 -90.0 218.0 -102.0 206.0 -114.0 198.0 -129.0 189.5 -144.0 184.5 -159.5 172.0 -196.0 171.0 -242.5 172.0 -292.0 174.0 -378.0 175.0 -414.5 176.5 -462.5 177.5 -510.5 179.0 -571.0 180.5 -632.0 183.0 -706.0 185.0 -780.5 187.5 -869.5 L83.0 -869.5 69.5 -235.5 Q75.5 -163.5 99.5 -106.5 109.5 -82.5 124.5 -59.0 139.0 -35.5 160.0 -17.0 180.5 1.0 208.0 12.5 235.0 24.0 270.5 24.5" fill-rule="evenodd" stroke="none"/>
    </g>
    <g id="font_McLaren_e0">
      <path d="M450.5 -326.5 L149.5 -290.0 Q157.0 -333.5 176.0 -362.5 194.5 -392.0 218.0 -409.5 241.5 -427.0 266.5 -434.0 291.5 -441.5 312.5 -441.5 362.0 -441.5 395.5 -413.5 428.5 -385.5 447.5 -336.0 L450.5 -326.5 M312.5 -46.0 L312.5 -46.0 Q279.0 -46.0 250.5 -56.0 221.5 -66.5 200.0 -86.0 178.0 -105.5 164.0 -133.5 150.0 -162.0 146.5 -197.5 L579.5 -262.0 Q573.5 -318.5 550.5 -367.0 527.5 -415.5 492.0 -451.0 456.5 -487.0 410.5 -507.0 364.5 -527.5 312.5 -527.5 254.5 -527.5 204.5 -504.5 154.5 -481.5 117.5 -441.5 80.5 -401.5 59.5 -347.0 38.0 -293.0 38.0 -230.5 38.0 -167.0 56.5 -115.5 74.5 -64.0 109.5 -27.5 144.5 9.0 195.5 29.0 246.5 49.0 312.5 49.0 357.0 49.0 398.0 34.5 438.5 20.0 472.5 -6.5 506.5 -33.0 532.0 -70.0 557.5 -107.0 571.5 -152.5 L475.0 -172.0 Q467.5 -141.0 451.5 -117.5 435.0 -94.0 413.0 -78.0 391.0 -62.5 365.0 -54.0 339.0 -46.0 312.5 -46.0" fill-rule="evenodd" stroke="none"/>
    </g>
    <g id="font_McLaren_T0">
      <path d="M598.0 -722.0 L20.5 -709.5 22.5 -604.0 259.0 -613.5 259.0 15.5 369.5 13.5 362.5 -617.5 596.0 -626.5 598.0 -722.0" fill-rule="evenodd" stroke="none"/>
    </g>
    <g id="font_McLaren_h0">
      <path d="M186.5 -749.5 L71.5 -745.5 80.0 25.5 178.0 23.5 181.0 -308.0 Q205.5 -354.0 234.0 -379.0 262.5 -404.5 287.5 -416.5 316.5 -430.5 345.0 -433.0 372.0 -433.0 400.0 -422.0 428.0 -411.5 451.5 -387.5 474.5 -364.0 490.5 -326.5 506.5 -289.0 509.0 -235.5 510.0 -197.5 507.5 -155.5 505.0 -119.5 499.0 -74.0 492.5 -28.5 478.0 19.5 L592.0 27.5 Q600.0 2.0 605.0 -30.0 609.5 -62.0 612.5 -97.5 615.0 -133.0 616.0 -170.0 616.5 -207.0 616.5 -242.5 614.0 -310.0 595.0 -363.5 575.5 -417.5 542.5 -455.0 509.5 -492.5 463.5 -512.5 417.5 -532.5 361.5 -532.5 331.0 -529.0 300.0 -519.0 273.0 -510.0 242.0 -492.5 211.0 -475.5 183.5 -445.5 L186.5 -749.5" fill-rule="evenodd" stroke="none"/>
    </g>
    <g id="font_McLaren_G0">
      <path d="M726.0 -131.0 L718.0 -371.5 314.5 -358.5 314.5 -254.0 620.5 -266.0 622.5 -159.5 Q584.0 -117.0 532.0 -92.5 479.5 -68.5 419.0 -68.5 361.0 -68.5 310.5 -91.0 260.0 -114.0 222.0 -153.0 184.0 -192.0 162.5 -244.5 140.5 -297.0 140.5 -356.5 140.5 -416.0 162.5 -468.0 184.0 -520.5 222.0 -559.5 260.0 -598.5 310.5 -621.0 361.0 -644.0 419.0 -644.0 485.5 -644.0 541.5 -615.5 597.0 -587.0 636.0 -538.5 L712.5 -601.0 Q686.5 -633.5 654.0 -660.0 621.5 -686.5 584.0 -705.0 546.5 -723.5 505.0 -733.5 463.5 -743.5 419.0 -743.5 367.0 -743.5 318.5 -729.5 270.0 -716.0 228.0 -690.5 186.0 -665.5 151.5 -630.0 117.0 -595.0 92.5 -552.0 68.0 -509.0 54.5 -459.5 41.0 -410.0 41.0 -356.5 41.0 -303.0 54.5 -253.5 68.0 -204.0 92.5 -161.0 117.0 -118.0 151.5 -82.5 186.0 -47.5 228.0 -22.0 270.0 3.0 318.5 17.0 366.5 30.5 419.0 30.5 466.5 30.5 511.0 19.0 555.0 7.5 594.5 -13.5 633.5 -34.5 667.0 -64.0 700.5 -94.0 726.0 -131.0" fill-rule="evenodd" stroke="none"/>
    </g>
    <g id="font_McLaren_a0">
      <path d="M476.0 -150.5 L476.0 -150.5 Q455.5 -137.5 426.0 -121.5 396.5 -105.5 363.5 -91.0 330.0 -77.0 296.5 -67.0 262.5 -57.5 233.5 -57.5 205.0 -57.5 185.0 -69.5 164.5 -81.5 157.5 -111.5 148.5 -148.5 164.0 -177.5 179.0 -206.5 209.5 -226.5 240.0 -246.5 282.5 -257.0 324.5 -267.5 369.5 -267.5 396.5 -267.5 423.5 -263.0 450.5 -258.5 475.0 -251.0 478.0 -224.5 477.5 -200.0 477.0 -175.5 476.0 -150.5 M462.0 31.5 L560.0 48.0 Q571.5 -17.0 577.0 -72.0 582.5 -127.0 582.5 -175.0 582.5 -220.0 577.5 -265.5 572.0 -311.0 560.0 -353.0 548.0 -395.5 529.5 -432.0 510.5 -469.0 483.5 -496.0 456.0 -523.5 420.0 -539.0 384.0 -555.0 338.0 -555.0 311.5 -555.0 278.5 -549.0 245.0 -543.0 206.5 -526.5 167.5 -510.5 123.5 -482.0 79.5 -453.5 31.5 -408.5 L92.0 -335.0 Q132.5 -376.0 168.0 -402.0 203.5 -428.5 233.5 -443.5 263.5 -458.5 288.5 -464.0 313.5 -470.0 333.0 -470.0 363.0 -470.0 384.5 -458.0 406.0 -446.0 421.0 -426.5 435.5 -407.5 445.0 -383.0 454.5 -359.0 461.0 -334.0 439.0 -338.0 410.5 -340.5 382.0 -343.0 349.0 -343.0 313.5 -343.0 277.5 -337.5 241.5 -332.5 209.0 -321.5 176.0 -310.5 147.5 -293.0 119.0 -275.5 98.0 -251.0 77.0 -226.5 65.0 -194.5 53.0 -162.5 53.0 -122.0 53.0 -81.5 69.0 -51.5 84.5 -22.0 110.5 -2.5 136.0 16.5 170.0 26.0 203.5 35.0 239.5 35.0 290.5 35.0 349.5 17.5 408.0 0.0 469.0 -39.0 L462.0 31.5" fill-rule="evenodd" stroke="none"/>
    </g>
    <g id="font_McLaren_m0">
      <path d="M177.0 -387.0 L175.0 -532.5 70.5 -521.0 84.0 16.5 183.5 11.5 179.0 -252.0 Q187.0 -264.0 197.5 -280.0 208.0 -296.0 220.0 -313.5 232.0 -331.0 245.0 -348.0 258.0 -365.5 272.0 -379.0 285.5 -392.5 299.0 -401.0 312.5 -409.5 325.5 -409.5 344.5 -409.5 356.5 -389.5 368.0 -369.5 369.5 -328.5 372.5 -296.0 374.5 -246.5 376.5 -204.0 378.5 -139.0 380.0 -74.5 380.0 16.5 L477.0 11.5 Q477.0 -41.0 477.0 -82.5 476.5 -124.0 476.0 -157.5 475.0 -191.0 474.0 -217.5 473.0 -244.0 472.0 -266.0 479.5 -277.5 489.5 -292.5 499.5 -307.5 510.5 -323.5 521.5 -339.5 534.0 -355.0 546.0 -370.5 559.0 -382.5 571.5 -394.5 584.5 -402.0 597.0 -409.5 609.5 -409.5 628.5 -409.5 640.5 -389.5 652.0 -369.5 653.5 -328.5 654.0 -296.0 655.0 -246.5 655.5 -204.0 656.0 -139.0 656.5 -74.5 656.5 16.5 L761.0 11.5 Q761.0 -91.0 759.5 -164.0 757.5 -237.5 755.0 -285.0 752.5 -340.5 749.5 -377.0 748.5 -411.0 738.0 -435.5 727.5 -460.5 711.5 -476.0 695.0 -492.0 674.0 -499.5 653.0 -507.0 631.0 -507.0 602.5 -507.0 579.0 -496.0 555.5 -485.5 535.5 -468.5 515.0 -452.0 498.0 -431.5 480.5 -411.5 465.0 -392.0 462.0 -422.0 451.0 -443.5 440.0 -465.5 424.0 -479.5 408.0 -493.5 388.5 -500.0 369.0 -507.0 348.0 -507.0 318.5 -507.0 294.5 -495.5 270.0 -484.5 249.5 -467.0 228.5 -449.5 211.0 -428.0 193.0 -407.0 177.0 -387.0" fill-rule="evenodd" stroke="none"/>
    </g>
  </defs>
</svg>
