<?xml version="1.0" encoding="UTF-8" standalone="no"?>
<svg xmlns:ffdec="https://www.free-decompiler.com/flash" xmlns:xlink="http://www.w3.org/1999/xlink" ffdec:objectType="shape" height="42.0px" width="102.05px" xmlns="http://www.w3.org/2000/svg">
  <g transform="matrix(1.0, 0.0, 0.0, 1.0, 1.0, 1.0)">
    <path d="M100.05 40.0 L10.0 40.0 10.0 30.0 0.0 30.0 0.0 10.0 10.0 10.0 10.0 0.0 100.05 0.0 100.05 40.0 M90.05 10.0 L80.05 10.0 80.05 30.0 90.05 30.0 90.05 10.0 M60.05 30.0 L70.05 30.0 70.05 10.0 60.05 10.0 60.05 30.0 M50.05 10.0 L40.05 10.0 40.05 30.0 50.05 30.0 50.05 10.0 M30.05 10.0 L20.05 10.0 20.05 30.0 30.05 30.0 30.05 10.0 M10.0 10.0 L10.0 30.0 10.0 10.0" fill="#999999" fill-rule="evenodd" stroke="none"/>
    <path d="M100.05 40.0 L10.0 40.0 10.0 30.0 0.0 30.0 0.0 10.0 10.0 10.0 10.0 0.0 100.05 0.0 100.05 40.0 M90.05 10.0 L80.05 10.0 80.05 30.0 90.05 30.0 90.05 10.0 M60.05 30.0 L70.05 30.0 70.05 10.0 60.05 10.0 60.05 30.0 M50.05 10.0 L40.05 10.0 40.05 30.0 50.05 30.0 50.05 10.0 M30.05 10.0 L20.05 10.0 20.05 30.0 30.05 30.0 30.05 10.0 M10.0 30.0 L10.0 10.0" fill="none" stroke="#666666" stroke-linecap="round" stroke-linejoin="round" stroke-width="2.0"/>
  </g>
</svg>
