<?xml version="1.0" encoding="UTF-8" standalone="no"?>
<svg xmlns:ffdec="https://www.free-decompiler.com/flash" xmlns:xlink="http://www.w3.org/1999/xlink" ffdec:objectType="shape" height="22.0px" width="52.0px" xmlns="http://www.w3.org/2000/svg">
  <g transform="matrix(1.0, 0.0, 0.0, 1.0, 1.0, -13.95)">
    <path d="M47.05 32.0 L44.95 33.65 Q42.75 34.95 40.0 34.95 L10.0 34.95 Q5.85 34.95 2.9 32.0 0.0 29.1 0.0 24.95 0.0 20.8 2.9 17.85 5.85 14.95 10.0 14.95 L40.0 14.95 Q42.75 14.95 44.95 16.25 46.05 16.85 47.05 17.85 50.0 20.8 50.0 24.95 50.0 29.1 47.05 32.0" fill="#333333" fill-rule="evenodd" stroke="none"/>
    <path d="M47.05 32.0 Q50.0 29.1 50.0 24.95 50.0 20.8 47.05 17.85 46.05 16.85 44.95 16.25 42.75 14.95 40.0 14.95 L10.0 14.95 Q5.85 14.95 2.9 17.85 0.0 20.8 0.0 24.95 0.0 29.1 2.9 32.0 5.85 34.95 10.0 34.95 L40.0 34.95 Q42.75 34.95 44.95 33.65 L47.05 32.0 Z" fill="none" stroke="#000000" stroke-linecap="round" stroke-linejoin="round" stroke-width="2.0"/>
  </g>
</svg>
