<?xml version="1.0" encoding="UTF-8" standalone="no"?>
<svg xmlns:ffdec="https://www.free-decompiler.com/flash" xmlns:xlink="http://www.w3.org/1999/xlink" ffdec:objectType="shape" height="26.0px" width="18.5px" xmlns="http://www.w3.org/2000/svg">
  <g transform="matrix(1.0, 0.0, 0.0, 1.0, 0.5, 3.0)">
    <path d="M1.0 7.2 L0.25 5.5 0.2 3.25 Q0.2 -1.55 3.5 -2.0 L9.85 -2.5 Q12.8 -2.5 15.25 1.45 17.15 4.55 17.15 6.15 17.15 7.1 16.55 8.4 L15.85 9.5 15.7 8.7 Q15.65 8.5 13.9 8.2 L11.05 7.85 10.5 7.85 9.4 9.25 9.15 9.6 9.4 9.25 10.5 7.85 11.05 7.85 13.9 8.2 Q15.65 8.5 15.7 8.7 L15.85 9.5 15.85 9.9 15.85 11.2 16.75 12.95 17.5 14.5 15.7 16.8 Q13.75 19.0 12.6 19.0 L11.65 18.55 Q11.0 18.15 10.15 18.3 L9.25 18.25 9.2 17.55 9.45 16.9 10.85 15.95 10.8 15.45 10.7 14.3 10.45 14.5 9.2 15.45 Q9.05 14.15 9.05 11.8 L9.15 9.6 9.35 5.6 6.4 5.6 6.5 6.65 6.6 8.1 6.45 10.35 6.4 11.9 6.1 11.9 5.35 11.3 5.4 10.65 5.4 9.35 Q5.4 8.35 4.6 7.5 3.85 6.7 2.9 6.7 1.65 6.7 1.0 7.2 1.65 6.7 2.9 6.7 3.85 6.7 4.6 7.5 5.4 8.35 5.4 9.35 L5.4 10.65 5.35 11.3 5.0 12.55 4.95 12.75 Q4.6 13.35 4.6 13.95 L2.35 13.95 0.8 13.0 Q0.0 12.4 0.0 11.1 0.0 8.3 0.9 7.35 L1.0 7.2 M2.75 3.75 L2.9 4.4 Q3.25 5.25 4.25 5.25 4.95 5.25 5.35 4.85 5.75 4.4 5.75 3.8 5.75 2.15 4.25 2.3 2.75 2.4 2.75 3.75 M9.75 0.3 Q9.75 -1.0 8.25 -1.1 6.75 -1.2 6.75 0.25 L6.9 0.9 Q7.25 1.75 8.25 1.75 8.85 1.75 9.3 1.35 9.75 0.9 9.75 0.3 M14.05 5.1 L14.5 4.05 Q14.5 2.75 13.0 2.65 11.5 2.55 11.5 4.0 L11.65 4.65 Q12.0 5.5 13.0 5.5 13.65 5.5 14.05 5.1 M11.25 12.25 L11.4 12.9 Q11.75 13.75 12.75 13.75 13.4 13.75 13.8 13.35 L14.25 12.3 Q14.25 11.0 12.75 10.9 11.25 10.8 11.25 12.25" fill="#00cc00" fill-rule="evenodd" stroke="none"/>
    <path d="M5.35 11.3 L6.1 11.9 6.4 11.9 6.45 10.35 6.6 8.1 6.5 6.65 6.4 5.6 9.35 5.6 9.15 9.6 9.05 11.8 Q9.05 14.15 9.2 15.45 L10.45 14.5 10.7 14.3 10.8 15.45 10.85 15.95 9.45 16.9 9.2 17.55 9.25 18.25 9.65 20.0 10.25 22.5 5.2 22.5 Q6.55 15.0 6.4 13.6 L5.2 12.9 4.95 12.75 5.0 12.55 5.35 11.3 M9.2 15.75 L9.2 15.45 9.2 15.75" fill="#663300" fill-rule="evenodd" stroke="none"/>
    <path d="M14.05 5.1 Q13.65 5.5 13.0 5.5 12.0 5.5 11.65 4.65 L11.5 4.0 Q11.5 2.55 13.0 2.65 14.5 2.75 14.5 4.05 L14.05 5.1 M9.75 0.3 Q9.75 0.9 9.3 1.35 8.85 1.75 8.25 1.75 7.25 1.75 6.9 0.9 L6.75 0.25 Q6.75 -1.2 8.25 -1.1 9.75 -1.0 9.75 0.3 M2.75 3.75 Q2.75 2.4 4.25 2.3 5.75 2.15 5.75 3.8 5.75 4.4 5.35 4.85 4.95 5.25 4.25 5.25 3.25 5.25 2.9 4.4 L2.75 3.75 M11.25 12.25 Q11.25 10.8 12.75 10.9 14.25 11.0 14.25 12.3 L13.8 13.35 Q13.4 13.75 12.75 13.75 11.75 13.75 11.4 12.9 L11.25 12.25" fill="#ff0000" fill-rule="evenodd" stroke="none"/>
    <path d="M15.85 9.5 L16.55 8.4 Q17.15 7.1 17.15 6.15 17.15 4.55 15.25 1.45 12.8 -2.5 9.85 -2.5 L3.5 -2.0 Q0.2 -1.55 0.2 3.25 L0.25 5.5 1.0 7.2 Q1.65 6.7 2.9 6.7 3.85 6.7 4.6 7.5 5.4 8.35 5.4 9.35 L5.4 10.65 5.35 11.3 6.1 11.9 6.4 11.9 6.45 10.35 6.6 8.1 6.5 6.65 6.4 5.6 9.35 5.6 9.15 9.6 9.4 9.25 10.5 7.85 11.05 7.85 13.9 8.2 Q15.65 8.5 15.7 8.7 L15.85 9.5 15.85 9.9 15.85 11.2 16.75 12.95 17.5 14.5 15.7 16.8 Q13.75 19.0 12.6 19.0 L11.65 18.55 Q11.0 18.15 10.15 18.3 L9.25 18.25 9.65 20.0 10.25 22.5 5.2 22.5 Q6.55 15.0 6.4 13.6 L5.2 12.9 4.95 12.75 Q4.6 13.35 4.6 13.95 L2.35 13.95 0.8 13.0 Q0.0 12.4 0.0 11.1 0.0 8.3 0.9 7.35 L1.0 7.2 M4.95 12.75 L5.0 12.55 5.35 11.3 M9.15 9.6 L9.05 11.8 Q9.05 14.15 9.2 15.45 L10.45 14.5 10.7 14.3 10.8 15.45 10.85 15.95 9.45 16.9 9.2 17.55 9.25 18.25 M9.2 15.45 L9.2 15.75" fill="none" stroke="#000000" stroke-linecap="round" stroke-linejoin="round" stroke-opacity="0.3019608" stroke-width="1.0"/>
  </g>
</svg>
