<?xml version="1.0" encoding="UTF-8" standalone="no"?>
<svg xmlns:ffdec="https://www.free-decompiler.com/flash" xmlns:xlink="http://www.w3.org/1999/xlink" ffdec:objectType="shape" height="22.0px" width="92.0px" xmlns="http://www.w3.org/2000/svg">
  <g transform="matrix(1.0, 0.0, 0.0, 1.0, 1.0, 1.0)">
    <path d="M87.35 17.05 Q84.75 20.0 81.0 20.0 L9.0 20.0 Q5.25 20.0 2.6 17.05 0.0 14.15 0.0 10.0 0.0 5.85 2.6 2.9 5.25 0.0 9.0 0.0 L81.0 0.0 Q84.75 0.0 87.35 2.9 90.0 5.85 90.0 10.0 90.0 14.15 87.35 17.05" fill="#660000" fill-rule="evenodd" stroke="none"/>
    <path d="M87.35 17.05 Q90.0 14.15 90.0 10.0 90.0 5.85 87.35 2.9 84.75 0.0 81.0 0.0 L9.0 0.0 Q5.25 0.0 2.6 2.9 0.0 5.85 0.0 10.0 0.0 14.15 2.6 17.05 5.25 20.0 9.0 20.0 L81.0 20.0 Q84.75 20.0 87.35 17.05 Z" fill="none" stroke="#330000" stroke-linecap="round" stroke-linejoin="round" stroke-width="2.0"/>
  </g>
</svg>
